<?xml version="1.0" encoding="utf-8"?>
<!-- Generator: Adobe Illustrator 26.0.2, SVG Export Plug-In . SVG Version: 6.00 Build 0)  -->
<svg version="1.1" id="Layer_1" xmlns="http://www.w3.org/2000/svg" xmlns:xlink="http://www.w3.org/1999/xlink" x="0px" y="0px"
	 viewBox="0 0 1000 1000" style="enable-background:new 0 0 1000 1000;" xml:space="preserve">
<style type="text/css">
	.st0{fill:#06113C;}
</style>
<g>
	<g>
		<path class="st0" d="M700,0c55.3,0,100,44.8,100,100H100v558.8c-55.3,0-100-44.8-100-100V100C0,44.8,44.8,0,100,0H700z"/>
	</g>
	<path class="st0" d="M900,200H300c-55.2,0-100,44.9-100,100v458.8c0,55.3,44.9,100,100,100c0,0,122.3,0,166.6,0
		c5.2,49.4,110.6,141.2,133.4,141.2c22.6,0,133.3-93.8,133.3-141.2c55-1.9,166.6,0,166.6,0c55.3,0,100-44.7,100-100V300
		C1000,244.9,955.3,200,900,200z M673.5,632.6c-3.4,2.7-7.1,4.7-11.1,5.9c-1,0.3-2.2,0.7-3.2,0.8c-1.9,0.5-3.7,0.7-5.7,0.7H345.7
		c-1.9,0-3.7-0.2-5.7-0.7c-1-0.2-1.7-0.3-2.7-0.7c-4.2-1.2-8.3-3.2-11.6-6.1c-6.7-5.7-15.5-13.8-21.1-21.1c0-0.2,0-0.2,0-0.3
		c-2.7-3.7-4.6-7.1-4.6-10.1c0-2.9,1.9-6.2,4.4-10c5.4-7.4,14.5-15.7,21.3-21.6c3-2.5,6.6-4.4,10.3-5.7c0.2,0,0.2,0,0.2,0
		c1.4-0.3,2.5-0.7,3.9-1c2-0.5,3.9-0.5,5.7-0.5h307.7c2,0,3.9,0,5.7,0.5c1,0.2,2.2,0.5,3.2,0.8c4,1.2,7.8,3.2,11.1,5.9
		c10.3,8.9,25.6,23.3,25.6,31.5S683.7,623.9,673.5,632.6z M828.8,415.6c-2.4,2-4.7,3.7-7.4,4.9c-2.4,0.8-4.6,1.5-6.9,1.9
		c-1.9,0.7-3.7,0.7-5.7,0.7h-463c-1.9,0-3.7,0-5.7-0.7c-5.1-0.8-10.1-3-14.3-6.7c-0.3-0.3-0.8-0.7-1.2-1c-2.9-2.4-6.1-5.2-9.3-8.3
		c-7.9-7.8-15.2-16.4-15.2-22.1c0-4.9,5.4-12,12-18.7l0.2-0.2c4.4-4.6,9.3-8.9,13.5-12.7c3-2.4,6.6-4.4,10.1-5.6
		c0.5-0.2,0.8-0.2,1.4-0.2c1-0.5,1.9-0.7,2.9-0.8c2-0.5,3.9-0.7,5.7-0.7h463c2,0,3.9,0.2,5.7,0.7c5.2,0.8,10.3,3.2,14.3,6.6
		c10.3,8.8,25.6,23.3,25.6,31.5C854.4,392.6,839.1,407,828.8,415.6z"/>
</g>
</svg>
