<?xml version="1.0" encoding="utf-8"?>
<!-- Generator: Adobe Illustrator 26.0.2, SVG Export Plug-In . SVG Version: 6.00 Build 0)  -->
<svg version="1.1" id="Layer_1" xmlns="http://www.w3.org/2000/svg" xmlns:xlink="http://www.w3.org/1999/xlink" x="0px" y="0px"
	 viewBox="0 0 1000 1000" style="enable-background:new 0 0 1000 1000;" xml:space="preserve">
<style type="text/css">
	.st0{fill-rule:evenodd;clip-rule:evenodd;fill:#fff;}
</style>
<g>
	<path class="st0" d="M990.4,246.8c-20.1,29-49.9,48.2-88.9,66.3l-6.6,3.2l-0.3,0.2c-2.7,1.2-5.6,2.5-8.4,3.7
		c-15.3,6.7-32.7,13.5-52.6,20.6c-5.9,2.2-12,4.2-18.2,6.4c-17.7,6.2-37.6,13-61.1,20.4l-30.2,6.4l-222.1,46.6L275.3,373l-26-5.4
		c-29.9-7.4-56.8-14.8-80.8-22.8c-19.6-6.4-37.1-13-53.1-20.1c-49.9-22.1-83.5-48.1-104.7-82c31.2-104.1,127.7-180,242.4-180h494
		c67,0,131.6,26.5,179,74C957,167.9,978.9,205.6,990.4,246.8z"/>
	<path class="st0" d="M1000,353.7v356.6c0,139.7-113.5,252.7-253,252.7H253c-139.7,0-253-113-253-252.7v-356
		c31.7,24.8,70.3,44.4,115.4,61.1c34.6,13,73.2,24.1,115.2,34.4l27.7,5.9l162.9,34.1l80.8,17l75.6-15.9l166.3-34.9l29.9-6.2l4.2-1.2
		c25.1-7.9,46.7-15.2,64.9-21.8c15.5-5.2,30-10.3,43.3-15.5c15.2-5.7,29.2-11.5,42.2-17.4l8.3-0.3l7.3-7.1
		C964.7,376.3,983.5,365.5,1000,353.7z"/>
</g>
</svg>
