<?xml version="1.0" encoding="utf-8"?>
<!-- Generator: Adobe Illustrator 26.0.2, SVG Export Plug-In . SVG Version: 6.00 Build 0)  -->
<svg version="1.1" id="Layer_1" xmlns="http://www.w3.org/2000/svg" xmlns:xlink="http://www.w3.org/1999/xlink" x="0px" y="0px"
	 viewBox="0 0 1000 1000" style="enable-background:new 0 0 1000 1000;" xml:space="preserve">
<style type="text/css">
	.st0{fill:#06113C;}
</style>
<path class="st0" d="M961.4,368.9v581c0,27.7-22.5,50.1-50.1,50.1h-219c-27.7,0-50.1-22.5-50.1-50.1V766.3
	c0-27.7-22.5-50.1-50.1-50.1H408.2c-27.7,0-50.1,22.5-50.1,50.1v183.6c0,27.7-22.5,50.1-50.1,50.1H88.8c-27.7,0-50.1-22.5-50.1-50.1
	v-581c0-15.5,7.2-30.1,19.4-39.6L469.4,10.5c18.1-14,43.4-14,61.4,0l411.1,318.7C954.2,338.7,961.4,353.4,961.4,368.9z"/>
</svg>
