<?xml version="1.0" encoding="utf-8"?>
<!-- Generator: Adobe Illustrator 26.0.2, SVG Export Plug-In . SVG Version: 6.00 Build 0)  -->
<svg version="1.1" id="Layer_1" xmlns="http://www.w3.org/2000/svg" xmlns:xlink="http://www.w3.org/1999/xlink" x="0px" y="0px"
	 viewBox="0 0 2048.1 1000" style="enable-background:new 0 0 2048.1 1000;" xml:space="preserve">
<style type="text/css">
	.st0{fill:#ECECEC;}
	.st1{fill:#06113C;}
	.st2{fill-rule:evenodd;clip-rule:evenodd;fill:#06113C;}
</style>
<rect x="0" class="st0" width="2048.1" height="1000"/>
<g>
	<path class="st1" d="M822,691.5c-1.1,3.6-2.5,8.3-3.1,10.3c-0.1,0.1-0.1,0.3-0.1,0.4l-10.7,35.9l-10.6,35.8
		c-0.6,2-2.4,8.3-3.8,13.1c-0.6,2.2-3.6,2.6-4.9,0.6c-2.6-4.3-6-9.8-7-11.6c0-0.1-0.1-0.1-0.1-0.1c-0.1-0.2-0.3-0.3-0.4-0.5
		l-13.7-22.5c-1.4-2.3-1-5.3,0.9-7.2l12.9-12.6l5.4-5.3l7.7-7.6c0.2-0.2,0.3-0.3,0.5-0.5c0,0,0,0,0,0l0.2-0.2c0,0,2.3-3.6,1.1-5.8
		c-2.4-1.1-5.8,1.1-5.8,1.1l-0.6,0.6l-0.1,0.1l-5,5l-6.4,6.5l-14.3,14.4c-1.9,1.9-4.9,2.3-7.2,0.9l-22.4-13.8
		c-0.2-0.1-0.3-0.2-0.5-0.3l0,0c0,0,0,0,0,0c-1.6-1-7.4-4.5-11.6-7.2c-2-1.2-1.6-4.2,0.7-4.9c4.8-1.4,11.1-3.2,13.1-3.8l35.9-10.4
		l35.9-10.4c0.5-0.1,1.2-0.4,2-0.6c2.4-0.7,5.9-1.7,8.8-2.6c0.8-0.2,1.6-0.1,2.2,0.3c0.3,0.2,0.5,0.4,0.7,0.7
		c0.1,0.1,0.2,0.3,0.3,0.4c0.1,0.2,0.1,0.3,0.2,0.5C822.2,690.6,822.2,691,822,691.5z"/>
	<path class="st2" d="M1764.8,499c0-24,20-43.4,44.3-43.4c24.3,0,44.3,19.4,44.3,43.4c0,12.1-3.1,24.6-10.4,34.1
		c-8,10.5-21,15-32.1,22.2c-2.5,1.7-1,1.8-3.8,0c-11.1-7.2-21.6-11.7-29.5-22.2C1770.4,523.6,1764.8,511.1,1764.8,499z
		 M1792.1,492.7c0,9.3,7.6,16.7,16.9,16.7c9.3,0,17-7.3,17-16.7c0-9.3-7.7-17-17-17C1799.7,475.8,1792.1,483.5,1792.1,492.7z"/>
	<path class="st1" d="M1621,532c-2.6,7-9.9,16.2-12.1,17.7c-2.5,1.8-5.5,2.8-8.8,2.8c-3.4,0-7.2-1-11.3-2.9
		c-9.8-4.1-33.2-21.6-38.2-25.4c-0.4-0.3-0.7-0.6-1-0.9c-0.3-0.3-0.6-0.7-0.9-1c-3.8-5-21.4-28.4-25.5-38.2
		c-1.9-4.1-2.9-7.9-2.9-11.3c0-3.3,0.9-6.3,2.8-8.8c1.5-2.2,10.7-9.5,17.7-12.1c2.1-0.8,4,0.7,5.8,3.1c2.9,3.6,12.4,16.1,12.4,16.1
		c2.5,3.8-0.7,6.3-2.6,8.5c-2.2,2.4-5.5,6.1-4.2,9.7c2.4,5.8,9.9,15.8,11.8,18.2c0.2,0.3,0.5,0.6,0.7,0.8c0.2,0.3,0.5,0.5,0.8,0.8
		c2.4,1.9,12.4,9.4,18.2,11.8c3.5,1.3,7.2-2,9.6-4.2c2.1-2,4.6-5.2,8.5-2.6c0,0,12.5,9.5,16.1,12.4
		C1620.3,528,1621.8,529.9,1621,532z"/>
	<path class="st2" d="M1865.9,268.8c-3.8,10.7-9.3,21-17.8,28.3c-15.8,13.7-39,18.9-39,18.9s-23.2-5.2-39-18.9
		c-8.5-7.3-14-17.7-17.8-28.3c-6.7-20.9,1.2-44.9,23.2-52.1c1.7-0.6,3.5-1,5.3-1.2h0.7c1.7-0.2,3.3-0.4,5-0.4h0.7
		c3.7,0.1,7.3,0.8,10.8,2h0.3c0.2,0.1,0.4,0.2,0.5,0.3c1.3,0.4,2.5,0.9,3.7,1.6l2.2,1c0.6,0.3,1.2,0.7,1.7,1.1
		c0.3,0.2,0.6,0.5,0.9,0.6c0.1,0.1,0.2,0.1,0.3,0.2c0.5,0.3,1,0.6,1.5,0.9c0.4-0.3,1-0.7,1.5-0.9c0.1-0.1,0.2-0.1,0.3-0.2
		c0.2-0.1,0.5-0.4,0.9-0.6c0.5-0.4,1.1-0.8,1.7-1.1l2.2-1c1.2-0.7,2.4-1.1,3.7-1.6c0.1-0.1,0.3-0.2,0.5-0.3h0.3
		c3.5-1.2,7.1-1.8,10.8-2h0.7c1.7,0,3.3,0.1,5,0.4h0.7c1.8,0.2,3.5,0.6,5.3,1.2C1864.7,224,1872.6,247.9,1865.9,268.8z"/>
	<g>
		<path class="st2" d="M838.9,231.8c-2.2,3.2-5.6,5.4-9.9,7.4l-0.7,0.4l0,0c-0.3,0.1-0.6,0.3-0.9,0.4c-1.7,0.8-3.6,1.5-5.9,2.3
			c-0.7,0.2-1.3,0.5-2,0.7c-2,0.7-4.2,1.4-6.8,2.3l-3.4,0.7l-24.8,5.2l-25.3-5.3l-2.9-0.6c-3.3-0.8-6.3-1.7-9-2.5
			c-2.2-0.7-4.1-1.4-5.9-2.2c-5.6-2.5-9.3-5.4-11.7-9.1c3.5-11.6,14.2-20.1,27-20.1h55.1c7.5,0,14.7,3,20,8.3
			C835.2,223,837.6,227.2,838.9,231.8z"/>
		<path class="st2" d="M840,243.7v39.8c0,15.6-12.7,28.2-28.2,28.2h-55.1c-15.6,0-28.2-12.6-28.2-28.2v-39.7
			c3.5,2.8,7.8,4.9,12.9,6.8c3.9,1.4,8.2,2.7,12.8,3.8l3.1,0.7l18.2,3.8l9,1.9l8.4-1.8l18.5-3.9l3.3-0.7l0.5-0.1
			c2.8-0.9,5.2-1.7,7.2-2.4c1.7-0.6,3.3-1.1,4.8-1.7c1.7-0.6,3.3-1.3,4.7-1.9l0.9,0l0.8-0.8C836,246.3,838.1,245.1,840,243.7z"/>
	</g>
	<path class="st1" d="M1094.4,704c5.3-3.2,9.3-8.2,11.2-14.1c-5,3-10.5,5.1-16.2,6.2c-7.9-8.4-20.4-10.4-30.6-5
		c-10.1,5.4-15.4,17-12.8,28.2c-20.5-1-39.5-10.7-52.4-26.6c-6.7,11.6-3.3,26.5,7.9,34c-4-0.1-8-1.2-11.5-3.2c0,0.1,0,0.2,0,0.3
		c0,12.1,8.5,22.6,20.4,25c-3.7,1-7.7,1.2-11.5,0.4c3.3,10.4,12.9,17.5,23.8,17.7c-9,7.1-20.2,10.9-31.6,10.9c-2,0-4.1-0.1-6.1-0.3
		c11.6,7.5,25.2,11.5,39,11.4c19.2,0.1,37.7-7.5,51.4-21.1c13.6-13.6,21.2-32.1,21.1-51.4c0-1.1,0-2.2-0.1-3.3
		c5-3.6,9.3-8.1,12.7-13.2C1104.3,702.1,1099.4,703.4,1094.4,704z"/>
	<path class="st1" d="M508.9,777.7h-0.1c-0.3,0-35.1-0.1-43.8-2.4c-4.8-1.3-8.6-5.1-9.9-9.9c-1.6-8.9-2.3-17.9-2.3-26.9
		c0-9,0.7-18.1,2.3-27c1.3-4.8,5.1-8.6,9.9-10c8.5-2.2,42.3-2.2,43.7-2.2h0.1c0.4,0,35.1,0.1,43.8,2.4c4.8,1.3,8.6,5.1,9.9,9.9
		c1.6,8.9,2.4,18,2.3,27c0,9-0.7,18-2.3,26.9c-1.3,4.8-5.1,8.6-9.9,9.9C544.1,777.7,510.4,777.7,508.9,777.7z M497.7,725.2l0,26.7
		c0,1.5,1.7,2.5,3,1.7l23.2-13.3c1.3-0.8,1.3-2.7,0-3.5l-23.2-13.3C499.4,722.7,497.7,723.6,497.7,725.2z"/>
	<path class="st1" d="M1617.1,248.3v58.3c0,2.8-2.3,5-5,5h-22c-2.8,0-5-2.3-5-5v-18.4c0-2.8-2.3-5-5-5h-18.4c-2.8,0-5,2.3-5,5v18.4
		c0,2.8-2.3,5-5,5h-22c-2.8,0-5-2.3-5-5v-58.3c0-1.6,0.7-3,1.9-4l41.3-32c1.8-1.4,4.3-1.4,6.2,0l41.2,32
		C1616.4,245.3,1617.1,246.8,1617.1,248.3z"/>
	<g>
		<path class="st1" d="M1620.9,717.8c-0.1-3.9-0.7-7.7-2-11.4c-0.1-0.3-0.2-0.7-0.4-1c-2.6-6.6-7.7-11.8-14.3-14.5
			c-0.1-0.1-0.3-0.1-0.5-0.2c-3.9-1.5-8.1-2.3-12.3-2.3c-5.3-0.3-6.9-0.3-20.8-0.3c-13.6,0-15.4,0-20.7,0.3
			c-4.2,0.1-8.3,0.9-12.2,2.3c-0.2,0.1-0.3,0.1-0.5,0.2c-6.5,2.7-11.7,7.9-14.2,14.5c-1.5,3.9-2.3,8.1-2.4,12.2
			c-0.2,5.3-0.3,6.9-0.3,20.8c0,13.7,0,15.4,0.3,20.8c0.1,4.2,0.9,8.3,2.4,12.2c2.6,6.8,8,12.1,14.7,14.7c0.8,0.3,1.5,0.6,2.3,0.8
			c3.2,1,6.5,1.6,9.9,1.7c5.4,0.2,7,0.3,20.8,0.3c13.7,0,15.4,0,20.8-0.3c3.5-0.1,7-0.6,10.4-1.7c0.6-0.2,1.2-0.4,1.9-0.6
			c6.7-2.6,12.1-8,14.7-14.7c0.1-0.3,0.3-0.7,0.4-1c1.2-3.6,1.9-7.4,2-11.2c0.2-5.3,0.3-7.1,0.3-20.8
			C1621.2,724.9,1621.2,723.2,1620.9,717.8z M1570.8,764.2c-10.5,0-19.9-6.3-23.9-16c-4-9.7-1.8-20.8,5.6-28.2
			c7.4-7.4,18.5-9.6,28.2-5.6c9.7,4,16,13.4,16,23.9C1596.6,752.7,1585.1,764.2,1570.8,764.2z M1601.9,715.8
			c-1.1,1.1-2.7,1.8-4.3,1.8c-3.3,0-6-2.7-6-6c0-3.3,2.7-6,6-6c3.3,0,6,2.7,6,6C1603.7,713.1,1603.1,714.7,1601.9,715.8z"/>
		<path class="st1" d="M1587.6,738.4c0,9.3-7.5,16.8-16.8,16.8c-9.3,0-16.8-7.5-16.8-16.8c0-9.3,7.5-16.8,16.8-16.8
			C1580.1,721.6,1587.6,729.1,1587.6,738.4z"/>
	</g>
	<path class="st1" d="M239.1,744.9V789h-19.7v-44.1h-16v-18.2h16v-13.9c-0.7-6.6,1.5-13.2,6.1-17.9c4.6-4.7,11.1-7.2,17.7-6.7
		c4.7,0.1,9.5,0.5,14.2,1.3v15.5h-8c-2.7-0.4-5.5,0.5-7.5,2.4c-2,1.9-3,4.6-2.8,7.4v11.9h17.5l-2.8,18.2H239.1z"/>
	<g>
		<path class="st1" d="M1304.8,789c-2.2-0.3-4.5-0.5-6.7-1c-12.4-2.8-22.2-13.7-23.7-26.3c-2.1-16.8,9.3-32.1,26.2-34.8
			c3.3-0.5,6.5-0.6,9.9,0c0,5.5,0,11,0,16.6c-0.9-0.2-1.7-0.3-2.5-0.5c-8.1-1.2-15.8,4.5-16.9,12.4c-1.1,8.5,4.5,16,12.9,17.1
			c8.4,1.1,16.9-5.4,16.9-15.3c-0.1-12,0-23.9,0-35.9c0-10.6,0-21.2,0-31.9c0-0.4,0-0.8,0-1.3c5.5,0,10.9,0,16.3,0
			c0.2,1.7,0.4,3.4,0.7,5.1c2.3,11.3,12.3,19.7,23.8,20.1c1,0,1.3,0.3,1.2,1.3c-0.1,4.7,0,9.3,0,14c0,0.4,0,0.7,0,1.1
			c-4.7,0.1-9.1-0.7-13.5-2.2c-4.3-1.5-8.3-3.6-12.1-6.5c0,0.6,0,0.9,0,1.2c0,11.6,0.1,23.3,0.1,34.9c0,6.3-1.5,12.3-5.1,17.5
			c-5.8,8.6-14,13.3-24.3,14.1c-0.4,0-0.7,0.1-1.1,0.2C1306.1,789,1305.4,789,1304.8,789z"/>
	</g>
	<g>
		<path class="st2" d="M180.1,254.3c0-23.9,19.2-43.3,42.8-43.3c11.4,0,22.2,4.6,30.3,12.7c8,8.1,12.5,19.1,12.5,30.6
			c0,23.9-19.2,43.3-42.8,43.3C199.3,297.6,180.1,278.2,180.1,254.3z"/>
		<path class="st2" d="M271.6,311.7c1.2,1.2,6.6-2.1,6.6-2.1s3.6-5.2,2.1-6.6c-1.5-1.3-16.7-14.9-16.7-14.9
			c-0.4-0.4-0.9-0.5-1.5-0.5c-1.1,0-3.7,1.1-4.2,1.7c-0.5,0.5-1.6,3.1-1.7,4.2c0,0.6,0.2,1.1,0.5,1.5
			C256.8,295,270.4,310.5,271.6,311.7z"/>
	</g>
	<g>
		<path class="st2" d="M1351.9,238.4l-52.1,67.4c-2.2,2.8-5.3,4.6-8.9,5.1c-6.6,1.1-18.6,1.3-20.5-0.5c-1.9-1.8-4.8-13.1-5.4-19.8
			c-0.3-3.6,0.7-7.1,2.9-9.9l34.4-44.5l16.9,13.2c0.7,0.5,1.6,0.8,2.5,0.7c1.7-0.1,4.4-0.5,5-1.4c0.7-0.9,0.4-3.5,0.1-5.2
			c-0.1-0.9-0.6-1.7-1.3-2.3l-16.9-13.2l11.3-14.7c2-2.6,5.7-3,8.2-1l22.8,17.8C1353.4,232.2,1353.9,235.9,1351.9,238.4z"/>
		<path class="st2" d="M1362.5,305.8c0,1.2-2.2,3.2-3.6,4.5c-0.6,0.5-1.3,0.8-2,1c-0.3,0.1-0.5,0.1-0.8,0.1h-29.2
			c-0.3,0-0.5,0-0.8-0.1c-0.7-0.1-1.4-0.5-2-1c-1.5-1.2-3.6-3.3-3.6-4.5c0-1.2,2.2-3.2,3.6-4.5c0.6-0.5,1.3-0.8,2-0.9
			c0.3-0.1,0.5-0.1,0.8-0.1h29.2c0.3,0,0.5,0,0.8,0.1c0.7,0.1,1.4,0.5,2,0.9C1360.3,302.5,1362.5,304.6,1362.5,305.8z"/>
	</g>
	<path class="st2" d="M529.1,211.2h-40.4c-14.6,0-23.2,8.6-23.2,23.3v49.8c0,14.9,7.9,19.6,23.2,23.3l20.2,4.2l20.2-4.2
		c16.3-5.3,23.2-8.4,23.2-23.3v-49.8C552.2,219.8,543.9,211.2,529.1,211.2z M486.9,235.3C486.9,235.3,486.9,235.3,486.9,235.3
		c0.4-0.4,0.8-0.8,1.2-1.1c0,0,0.1-0.1,0.1-0.1c0,0,0,0,0,0c0.4-0.3,0.8-0.5,1.3-0.6c0.2,0,0.4-0.1,0.6-0.1h13.4
		c0.2,0,0.4,0,0.6,0.1c0.1,0,0.2,0,0.3,0.1c0.4,0.1,0.8,0.3,1.1,0.6c1,0.9,2.6,2.3,2.6,3.2c0,0,0,0,0,0c0,0,0,0.1,0,0.2
		c-0.2,0.8-1.6,2.2-2.6,3c-0.3,0.3-0.7,0.5-1.1,0.6c-0.1,0-0.2,0.1-0.3,0.1c-0.2,0-0.4,0.1-0.6,0.1h-13.4c-0.2,0-0.4,0-0.6-0.1
		c-0.3-0.1-0.7-0.2-1-0.4c0,0-0.1,0-0.1-0.1c-0.1-0.1-0.2-0.1-0.3-0.2c-0.4-0.3-0.8-0.7-1.3-1.2c0,0,0,0,0,0c-0.7-0.7-1.3-1.5-1.3-2
		C485.5,236.8,486.1,236,486.9,235.3z M528.2,284.4c-0.3,0.3-0.7,0.5-1.1,0.6c-0.1,0-0.2,0.1-0.3,0.1c-0.2,0-0.4,0.1-0.6,0.1h-36.1
		c-0.2,0-0.4,0-0.6-0.1c-0.1,0-0.2,0-0.3-0.1c-0.4-0.1-0.8-0.3-1.2-0.6c-0.7-0.6-1.6-1.4-2.1-2.1c0,0,0,0,0,0
		c-0.3-0.4-0.5-0.7-0.5-1s0.2-0.6,0.4-1c0.5-0.7,1.5-1.6,2.1-2.2c0.3-0.3,0.7-0.5,1-0.6c0,0,0,0,0,0c0.1,0,0.3-0.1,0.4-0.1
		c0.2,0,0.4,0,0.6,0h36.1c0.2,0,0.4,0,0.6,0c0.1,0,0.2,0,0.3,0.1c0.4,0.1,0.8,0.3,1.1,0.6c1,0.9,2.6,2.3,2.6,3.2
		C530.8,282,529.3,283.5,528.2,284.4z M528.2,262.4c-0.2,0.2-0.5,0.4-0.7,0.5c-0.2,0.1-0.5,0.2-0.7,0.2c-0.2,0.1-0.4,0.1-0.6,0.1
		h-36.1c-0.2,0-0.4,0-0.6-0.1c-0.5-0.1-1-0.3-1.4-0.7c0,0-0.1-0.1-0.1-0.1c-0.3-0.2-0.6-0.5-0.9-0.8c-0.8-0.8-1.5-1.6-1.5-2.2
		c0-0.5,0.5-1.2,1.2-1.9l0,0c0.4-0.5,0.9-0.9,1.4-1.3c0.3-0.2,0.7-0.4,1-0.6c0,0,0.1,0,0.1,0c0.1,0,0.2-0.1,0.3-0.1
		c0.2,0,0.4-0.1,0.6-0.1h36.1c0.2,0,0.4,0,0.6,0.1c0.5,0.1,1,0.3,1.4,0.7c1,0.9,2.6,2.4,2.6,3.2
		C530.8,260.1,529.3,261.6,528.2,262.4z"/>
	<g>
		<path class="st2" d="M1080.2,288.5c0,0.6,0,1.2-0.1,1.8c0.1-0.5,0.1-1,0.1-1.5C1080.2,288.7,1080.2,288.6,1080.2,288.5z
			 M1003.6,288.7c0,0.7,0.1,1.3,0.2,1.9c-0.1-0.7-0.1-1.4-0.1-2.2C1003.6,288.5,1003.6,288.6,1003.6,288.7z"/>
		<path class="st2" d="M1107.7,278.3c0,0.1,0,0.2,0,0.3c-0.6,8.4-5.3,10.4-15.6,13.7l-0.5,0.1l-0.2,0c-0.7,0.1-1.3-0.5-1.2-1.2
			c1.2-11-4.9-18-10.1-22c-2.5-1.9-4.7-3.1-5.9-3.7c-0.2-0.1-0.2-0.2-0.2-0.3c0,0,0-0.1,0-0.1c0,0,0.1-0.1,0.2-0.1
			c1.2,0,2.5,0,3.7,0h0.1c0.7,0,1.4,0.1,2.1,0.1c5.9,0.3,11.3,1,13.6,1.6c6.6,1.3,11,3.9,12.8,7.6
			C1107.2,275.6,1107.6,276.9,1107.7,278.3z"/>
		<path class="st2" d="M1096.3,241.6c-2,7.7-8.4,13.3-16.1,14.9c-1.7,0.4-3.4,0.5-5.1,0.5c-1,0-2-0.1-2.9-0.3
			c-0.7-0.1-1-0.9-0.6-1.4c3.8-5.4,5.9-12,5.9-19c0-1.7-0.1-3.3-0.4-4.9c-0.8-5.4-2.9-10.5-6.1-14.8c-0.1-0.2-0.2-0.4-0.1-0.6
			c0.1-0.2,0.3-0.2,0.5-0.3c1.4-0.3,2.8-0.4,4.3-0.4C1089.3,215.2,1099.9,227.7,1096.3,241.6z"/>
		<path class="st2" d="M1067.2,235.8c0,13.8-11.3,24.8-25.3,24.8c-14.1,0-25.3-11-25.3-24.8c0-4.5,1.2-8.8,3.4-12.4
			c4.4-7.4,12.5-12.4,22-12.4c9.4,0,17.6,5,22,12.4C1066,227.1,1067.2,231.3,1067.2,235.8z"/>
		<path class="st2" d="M1022.6,274.1c-10.6,1.8-18.1,5.7-18.9,13.3C1004.5,279.8,1012,275.9,1022.6,274.1z"/>
		<path class="st2" d="M1080.1,289.6c0,0.2,0,0.5-0.1,0.7c-0.3,3.6-1.1,6.4-2.7,8.5c1.4-2.2,2.3-4.8,2.6-8.2
			C1080.1,290.3,1080.1,290,1080.1,289.6z"/>
		<path class="st2" d="M1080.2,288.5L1080.2,288.5c0,0.4,0,0.8,0,1.1c0,0.4-0.1,0.7-0.1,1.1c-0.3,3.3-1.2,6-2.6,8.2
			c-0.1,0.1-0.1,0.2-0.2,0.3c-3.2,4.7-9.1,7-17.5,9.1l-2.1,0.4l-15.7,3.3l-15.4-3.2c-0.2-0.1-0.4-0.1-0.6-0.1l-1.8-0.4
			c-8.4-2.1-14.2-4.4-17.5-9.1c-0.1-0.1-0.1-0.2-0.2-0.3c-1.4-2.2-2.3-4.8-2.6-8.2c0-0.4-0.1-0.7-0.1-1.1c0-0.3,0-0.7,0-1
			c0-0.4,0-0.8,0.1-1.1c0.8-7.5,8.3-11.5,18.9-13.3c3.5-0.6,7.4-1,11.6-1.2c2.5-0.1,5.1-0.2,7.7-0.2c2.6,0,5.2,0.1,7.7,0.2
			c4.1,0.2,8,0.6,11.6,1.2c10.6,1.8,18.1,5.7,18.9,13.3C1080.1,287.7,1080.2,288.1,1080.2,288.5z"/>
		<path class="st2" d="M1006.4,298.8c-1.5-2.2-2.4-4.9-2.7-8.5c0-0.2,0-0.5-0.1-0.7c0,0.4,0.1,0.7,0.1,1.1
			C1004.1,294,1005,296.7,1006.4,298.8z"/>
		<path class="st2" d="M1080.1,287.4c-0.8-7.5-8.3-11.5-18.9-13.3C1071.8,275.9,1079.3,279.8,1080.1,287.4z"/>
		<path class="st2" d="M1107.7,278c0,0.2,0,0.3,0,0.5c-0.6,8.4-5.3,10.4-15.6,13.7l-0.5,0.1l-0.2,0c-0.7,0.1-1.3-0.5-1.2-1.2
			c1.2-11-4.9-18-10.1-22c-2.5-1.9-4.7-3.1-5.9-3.7c-0.2-0.1-0.2-0.2-0.2-0.3c0,0,0-0.1,0-0.1c1.3-0.1,2.6-0.1,3.9-0.1h0.1
			c0.7,0,1.4,0.1,2.1,0.1c5.9,0.3,11.3,1,13.6,1.6c6.6,1.3,11,3.9,12.8,7.6C1107.2,275.6,1107.6,276.8,1107.7,278z"/>
	</g>
	<path class="st2" d="M1340.5,451.8h-41c-16,0-26.8,11.3-26.8,28v42.2c0,16.3,8.7,21.4,25.3,25.4l22,4.6l22.1-4.6
		c1.9-0.6,3.7-1.2,5.4-1.8c2.8-1,5.3-1.9,7.4-2.9c0,0,0.1,0,0.1-0.1c8.6-4,12.3-9.1,12.3-20.7v-42.2
		C1367.3,463.1,1356.6,451.8,1340.5,451.8z M1296.9,506.5c-0.9,0.9-2.2,0.9-3,0l-4.1-4.1c-0.8-0.8-0.8-2.2,0-3l4.1-4.1
		c0.4-0.4,1-0.6,1.6-0.6c0.5,0,1.1,0.2,1.5,0.6l4.1,4.1c0.8,0.8,0.8,2.2,0,3L1296.9,506.5z M1325.6,502.4l-4.1,4.1
		c-0.8,0.9-2.2,0.9-3,0l-4.1-4.1c-0.8-0.8-0.8-2.1,0-3c0,0,0,0,0-0.1l4.1-4.1c0.8-0.8,2.2-0.8,3,0l4.1,4.1c0,0,0,0,0.1,0.1
		C1326.5,500.3,1326.4,501.6,1325.6,502.4z M1350.2,502.4l-4.1,4.1c-0.8,0.9-2.2,0.9-3,0l-4.1-4.1c-0.9-0.8-0.9-2.2,0-3l4.1-4.1
		c0.4-0.4,1-0.6,1.5-0.6c0.6,0,1.1,0.2,1.5,0.6l4.1,4.1C1351.1,500.2,1351.1,501.6,1350.2,502.4z"/>
	<g>
		<g>
			<path class="st1" d="M250.6,451.5c5.6,0,10.1,4.5,10.1,10.1H190V518c-5.6,0-10.1-4.5-10.1-10.1v-46.3c0-5.6,4.5-10.1,10.1-10.1
				H250.6z"/>
		</g>
		<path class="st1" d="M270.8,471.7h-60.6c-5.6,0-10.1,4.5-10.1,10.1v46.3c0,5.6,4.5,10.1,10.1,10.1c0,0,12.3,0,16.8,0
			c0.5,5,11.2,14.3,13.5,14.3c2.3,0,13.5-9.5,13.5-14.3c5.6-0.2,16.8,0,16.8,0c5.6,0,10.1-4.5,10.1-10.1v-46.3
			C280.9,476.2,276.4,471.7,270.8,471.7z M247.9,515.4c-0.3,0.3-0.7,0.5-1.1,0.6c-0.1,0-0.2,0.1-0.3,0.1c-0.2,0.1-0.4,0.1-0.6,0.1
			h-31.1c-0.2,0-0.4,0-0.6-0.1c-0.1,0-0.2,0-0.3-0.1c-0.4-0.1-0.8-0.3-1.2-0.6c-0.7-0.6-1.6-1.4-2.1-2.1c0,0,0,0,0,0
			c-0.3-0.4-0.5-0.7-0.5-1c0-0.3,0.2-0.6,0.4-1c0.5-0.7,1.5-1.6,2.1-2.2c0.3-0.3,0.7-0.4,1-0.6c0,0,0,0,0,0c0.1,0,0.3-0.1,0.4-0.1
			c0.2-0.1,0.4-0.1,0.6-0.1h31.1c0.2,0,0.4,0,0.6,0.1c0.1,0,0.2,0.1,0.3,0.1c0.4,0.1,0.8,0.3,1.1,0.6c1,0.9,2.6,2.3,2.6,3.2
			C250.5,513,249,514.5,247.9,515.4z M263.6,493.5c-0.2,0.2-0.5,0.4-0.7,0.5c-0.2,0.1-0.5,0.2-0.7,0.2c-0.2,0.1-0.4,0.1-0.6,0.1
			h-46.7c-0.2,0-0.4,0-0.6-0.1c-0.5-0.1-1-0.3-1.4-0.7c0,0-0.1-0.1-0.1-0.1c-0.3-0.2-0.6-0.5-0.9-0.8c-0.8-0.8-1.5-1.7-1.5-2.2
			c0-0.5,0.5-1.2,1.2-1.9l0,0c0.4-0.5,0.9-0.9,1.4-1.3c0.3-0.2,0.7-0.4,1-0.6c0.1,0,0.1,0,0.1,0c0.1-0.1,0.2-0.1,0.3-0.1
			c0.2-0.1,0.4-0.1,0.6-0.1h46.7c0.2,0,0.4,0,0.6,0.1c0.5,0.1,1,0.3,1.4,0.7c1,0.9,2.6,2.3,2.6,3.2
			C266.2,491.2,264.6,492.6,263.6,493.5z"/>
	</g>
	<g>
		<path class="st2" d="M504.3,550.4c0,2.2,7.8,4,7.8,4s8-1.5,7.8-4s-1.7-24.9-1.7-24.9c0-0.7-0.3-1.3-0.8-1.8
			c-1-0.9-4.3-2.3-5.3-2.3s-4.3,1.4-5.3,2.3c-0.5,0.5-0.8,1.1-0.8,1.8C506,525.5,504.3,548.2,504.3,550.4z"/>
		<path class="st2" d="M540.5,509.4c-0.7,0.2-1.4,0.5-2.1,0.7c-1.5,0.4-3,0.8-4.6,1.2l-20.7,4.4c-0.9,0.2-1.9,0.2-2.9,0l-20.7-4.4
			c-1.6-0.4-3.2-0.8-4.6-1.2c-0.7-0.2-1.4-0.4-2.1-0.7c-4.2-1.9-6.2-7.2-3.7-11.6l25.4-44c1.6-2.8,4.4-4.1,7.2-4.1
			c2.8,0,5.6,1.4,7.2,4.1l25.4,44C546.7,502.2,544.7,507.5,540.5,509.4z"/>
	</g>
	<g>
		<path class="st2" d="M775.8,453.6c0-2.2,7.8-4,7.8-4s8,1.5,7.8,4c-0.1,2.5-1.7,24.9-1.7,24.9c0,0.7-0.3,1.3-0.8,1.8
			c-1,0.9-4.3,2.3-5.3,2.3s-4.3-1.4-5.3-2.3c-0.5-0.5-0.8-1.1-0.8-1.8C777.5,478.5,775.8,455.8,775.8,453.6z"/>
		<path class="st2" d="M812,494.6c-0.7-0.2-1.4-0.5-2.1-0.7c-1.5-0.4-3-0.8-4.6-1.2l-20.7-4.4c-0.9-0.2-1.9-0.2-2.9,0l-20.7,4.4
			c-1.6,0.4-3.2,0.8-4.6,1.2c-0.7,0.2-1.4,0.4-2.1,0.7c-4.2,1.9-6.2,7.2-3.7,11.6l25.4,44c1.6,2.8,4.4,4.1,7.2,4.1
			c2.8,0,5.6-1.4,7.2-4.1l25.4-44C818.2,501.8,816.2,496.5,812,494.6z"/>
	</g>
	<path class="st2" d="M1091.6,477.7v63.4c0,4.9-0.7,8.5-2.2,11.3l-36.4-36.4c-3.1-3.2-8.3-3.2-11.4,0l-36.3,36.3
		c-1.5-3-2.3-6.6-2.3-11.3v-63.4c0-15.7,10.1-26.2,25.1-26.2h38.4C1081.6,451.5,1091.6,462,1091.6,477.7z"/>
</g>
</svg>
