<?xml version="1.0" encoding="utf-8"?>
<!-- Generator: Adobe Illustrator 26.0.2, SVG Export Plug-In . SVG Version: 6.00 Build 0)  -->
<svg version="1.1" id="Layer_1" xmlns="http://www.w3.org/2000/svg" xmlns:xlink="http://www.w3.org/1999/xlink" x="0px" y="0px"
	 viewBox="0 0 1000 1000" style="enable-background:new 0 0 1000 1000;" xml:space="preserve">
<style type="text/css">
	.st0{fill:#fff;}
</style>
<g>
	<path class="st0" d="M996,295.1c-0.7-38.5-7.1-76.6-19.7-112.9c-1-3.4-2.2-6.7-3.5-10.1c-25.5-65.3-76.4-117.3-141.2-143.9
		c-1.4-0.7-3-1.4-4.7-2c-39-14.5-80-22.4-121.5-23.1C653,0.5,637.2,0,499.7,0C364.5,0,347,0,294.2,3c-41.5,0.7-82.5,8.6-121.1,23.1
		c-1.7,0.7-3.4,1.4-4.9,2C103.3,54.8,52.6,106.8,27.1,172.1C12.6,210.9,4.6,251.9,3.6,293.2c-2.2,53-2.9,68.8-2.9,205.7
		c0,135.3,0,152.9,2.9,206c1,41.3,8.9,82.2,23.5,121.1c26,67,78.8,119.8,145.6,145.8c7.6,3,15.2,5.7,22.9,8.1
		c31.7,10.1,64.8,15.7,98.4,16.9c53.3,2.4,69.3,3.2,205.7,3.2c135.6,0,153,0,205.8-3.2c34.8-0.5,69.7-6.4,102.9-16.9
		c6.2-2,12.3-4.1,18.4-6.4c66.8-26,120-78.8,145.9-145.8c1.4-3.4,2.5-6.7,3.5-10.1c12.3-35.8,18.9-73.2,19.7-111.2
		c2.4-52.6,3.2-70.4,3.2-205.7S999.2,348.2,996,295.1z M499.7,755c-103.6,0-197.2-62.3-236.9-158.1c-39.7-95.7-17.9-206,55.5-279.4
		c73.1-73.2,183.4-95.3,279.2-55.7c95.7,39.6,158.3,133.1,158.3,236.7C755.6,640.1,641,754.9,499.7,755z M808.2,275.4
		c-11.3,11-26.7,17.4-42.5,17.4c-32.9-0.2-59.6-27-59.6-59.9c0.2-33.1,26.8-59.7,59.7-59.7c32.9,0,59.7,26.7,59.9,59.7
		C825.8,248.7,819.4,263.9,808.2,275.4z"/>
	<path class="st0" d="M665.9,498.6c0,91.8-74.4,166.3-166.3,166.3s-166.3-74.4-166.3-166.3c0-92,74.4-166.4,166.3-166.4
		C591.5,332.5,665.7,406.8,665.9,498.6z"/>
</g>
</svg>
