<?xml version="1.0" encoding="utf-8"?>
<!-- Generator: Adobe Illustrator 26.0.2, SVG Export Plug-In . SVG Version: 6.00 Build 0)  -->
<svg version="1.1" id="Layer_1" xmlns="http://www.w3.org/2000/svg" xmlns:xlink="http://www.w3.org/1999/xlink" x="0px" y="0px"
	 viewBox="0 0 1000 1000" style="enable-background:new 0 0 1000 1000;" xml:space="preserve">
<style type="text/css">
	.st0{fill-rule:evenodd;clip-rule:evenodd;fill:#06113C;}
</style>
<path class="st0" d="M980.5,527c-32,90.4-78.6,177.8-150.4,239.8C696,882.7,500,927,500,927s-196-44.4-330.1-160.2
	C98.1,704.7,51.6,617.4,19.5,527C-37,349.9,29.5,147.5,216,86.5c14.5-5.1,29.5-8.6,44.5-10.5h5.9c14.2-2,28-3,42-3h5.6
	c31.5,1,62.1,6.4,91.6,16.5h2.9c2,0.8,3.5,2,4.5,2.9c11,3.5,21.4,7.6,31.5,13.2l18.9,8.4c4.7,2.5,9.8,6.2,14.3,9.4
	c2.7,2,5.2,3.9,7.3,5.1c0.8,0.5,1.7,1,2.5,1.5c4.2,2.4,8.8,5.1,12.5,7.9c3.7-2.9,8.3-5.6,12.5-7.9c0.8-0.5,1.7-1,2.5-1.5
	c2-1.2,4.6-3,7.3-5.1c4.5-3.2,9.6-6.9,14.3-9.4l18.9-8.4c10.1-5.6,20.6-9.6,31.5-13.2c1-0.8,2.5-2,4.6-2.9h2.9
	C624,79.4,654.5,74,686,73h5.6c14,0,27.8,1,42,3h5.9c15,1.9,30,5.4,44.5,10.5C970.5,147.5,1037,349.9,980.5,527z"/>
</svg>
