<?xml version="1.0" encoding="utf-8"?>
<!-- Generator: Adobe Illustrator 26.0.2, SVG Export Plug-In . SVG Version: 6.00 Build 0)  -->
<svg version="1.1" id="Layer_1" xmlns="http://www.w3.org/2000/svg" xmlns:xlink="http://www.w3.org/1999/xlink" x="0px" y="0px"
	 viewBox="0 0 1000 1000" style="enable-background:new 0 0 1000 1000;" xml:space="preserve">
<style type="text/css">
	.st0{fill-rule:evenodd;clip-rule:evenodd;fill:#06113C;}
</style>
<path class="st0" d="M61.1,429.5C61.1,192,259.6,0,499.6,0c240.8,0,439.3,192,439.3,429.5c0,119.7-30.9,243.4-102.6,337.6
	c-79,103.9-207.9,149.1-317.5,220.1c-25.1,16.4-10,17.7-37.6,0c-110.2-71-214-116.2-292.4-220.1C117.1,672.9,61.1,549.2,61.1,429.5z
	 M331.7,366.9c0,92.4,75.4,165.1,167.8,165.1c92.5,0,168.7-72.7,168.7-165.1c0-91.7-76.2-167.9-168.7-167.9
	C407.2,199,331.7,275.2,331.7,366.9z"/>
</svg>
