<?xml version="1.0" encoding="utf-8"?>
<!-- Generator: Adobe Illustrator 26.0.2, SVG Export Plug-In . SVG Version: 6.00 Build 0)  -->
<svg version="1.1" id="Layer_1" xmlns="http://www.w3.org/2000/svg" xmlns:xlink="http://www.w3.org/1999/xlink" x="0px" y="0px"
	 viewBox="0 0 1000 1000" style="enable-background:new 0 0 1000 1000;" xml:space="preserve">
<style type="text/css">
	.st0{fill-rule:evenodd;clip-rule:evenodd;fill:#06113C;}
</style>
<path class="st0" d="M704.7,0h-409C135.8,0,28.2,112.4,28.2,279.4v421.1c0,162.4,86.6,212.8,252.2,253.6l219.6,46l219.8-46
	c19.3-6.1,37.2-12,54-18c27.8-9.5,52.6-19,74-29.2c0.3,0,0.7-0.2,1-0.5c85.7-39.9,123-90.5,123-205.9V279.4
	C971.8,112.4,864.7,0,704.7,0z M269.9,545c-8.5,8.5-21.9,8.5-30.4,0l-40.9-40.9c-8.3-8.3-8.3-21.9,0-30.2l40.9-41.1
	c4.4-4.2,10-6.4,15.6-6.3c5.4,0.2,10.7,2.4,14.8,6.3l40.9,41.1c8.3,8.3,8.3,21.9,0,30.2L269.9,545z M556,504.1L514.9,545
	c-8.3,8.5-21.9,8.5-30.2,0l-40.9-40.9c-8.1-8.1-8.3-21.4-0.3-29.7c0-0.2,0.2-0.3,0.3-0.5l40.9-41.1c8.3-8.3,21.9-8.3,30.2,0
	l41.1,41.1c0.2,0.2,0.3,0.3,0.5,0.7C564.3,482.9,564.2,495.9,556,504.1z M801.3,504.1L760.2,545c-8.3,8.5-21.9,8.5-30.2,0
	l-40.9-40.9c-8.5-8.3-8.5-21.9,0-30.2l40.9-41.1c4.1-4.1,9.5-6.1,14.8-6.3c5.6,0,11.2,2,15.4,6.3l41.1,41.1
	C809.6,482.2,809.6,495.8,801.3,504.1z"/>
</svg>
