<?xml version="1.0" encoding="utf-8"?>
<!-- Generator: Adobe Illustrator 26.0.2, SVG Export Plug-In . SVG Version: 6.00 Build 0)  -->
<svg version="1.1" id="Layer_1" xmlns="http://www.w3.org/2000/svg" xmlns:xlink="http://www.w3.org/1999/xlink" x="0px" y="0px"
	 viewBox="0 0 1000 1000" style="enable-background:new 0 0 1000 1000;" xml:space="preserve">
<style type="text/css">
	.st0{fill-rule:evenodd;clip-rule:evenodd;fill:#fff;}
</style>
<path class="st0" d="M700.8,0H299.4C153.8,0,69,85.3,69,231.3v494.8c0,148.5,79,194.5,230.4,231.8l200.6,42l200.8-42
	C863.2,905.5,931,874.6,931,726.2V231.3C931,85.3,848.6,0,700.8,0z M281.3,239.7c0.2-0.2,0.2-0.3,0.3-0.5c3.9-3.9,8.1-7.4,11.6-10.5
	c0.3-0.3,0.8-0.6,1.1-1c0.2,0,0.3-0.2,0.5-0.2c3.9-2.9,8.2-4.8,12.8-5.7c1.9-0.5,3.9-0.6,5.8-0.6H447c1.9,0,3.9,0.2,5.7,0.6
	c1.1,0.2,2.3,0.5,3.4,0.8c4,1.3,7.8,3.2,11,6c10.2,8.6,25.5,22.9,25.8,31.3c0,0.2,0,0.2,0,0.3c0,0.5,0,1.1-0.2,1.6
	c-1.8,8.4-16,21.6-25.7,29.9c-3.2,2.7-6.9,4.7-11,6c-1.1,0.3-2.3,0.6-3.4,0.8c-1.8,0.5-3.7,0.6-5.7,0.6H313.4
	c-1.9,0-3.9-0.2-5.8-0.6c-3.4-0.6-6.8-1.8-9.9-3.7c-0.3-0.2-0.8-0.3-1.3-0.6c-1.1-0.8-2.3-1.5-3.2-2.4c-3.9-3.2-8.4-7.3-12.6-11.5
	c0,0,0-0.2-0.2-0.2c-6.9-7.1-12.9-14.7-12.9-19.9C267.5,254.9,274,247,281.3,239.7z M692.4,727.3c-3.2,2.7-6.9,4.8-11.2,6
	c-1,0.3-2.1,0.6-3.2,0.8c-1.8,0.5-3.7,0.6-5.7,0.6h-359c-1.9,0-3.9-0.2-5.8-0.6c-1-0.2-1.8-0.3-2.7-0.6c-4.2-1.1-8.2-3.2-11.6-6.1
	c-6.8-5.7-15.7-13.9-21.2-21.2c0-0.2,0-0.2,0-0.3c-2.7-3.7-4.5-7.1-4.5-10c0-2.9,1.8-6.3,4.4-10c5.3-7.4,14.5-15.8,21.3-21.6
	c3.1-2.6,6.6-4.5,10.3-5.8c0.2,0,0.2,0,0.2,0c1.3-0.3,2.6-0.6,3.9-1c1.9-0.5,3.9-0.5,5.8-0.5h359c1.9,0,3.9,0,5.7,0.5
	c1.1,0.2,2.3,0.5,3.2,0.8c4.2,1.1,7.9,3.2,11.2,6c10.3,8.9,25.8,23.3,25.8,31.7C718.3,704,702.7,718.6,692.4,727.3z M692.4,509.5
	c-2.3,2.1-4.7,3.7-7.4,4.8c-2.3,1-4.5,1.6-6.9,1.9c-1.8,0.6-3.7,0.6-5.7,0.6h-359c-1.9,0-3.9,0-5.8-0.6c-5.2-0.8-10.2-3.1-14.4-6.8
	c-0.3-0.3-0.8-0.6-1.1-1c-2.9-2.4-6.1-5.3-9.4-8.4c-7.9-7.8-15.2-16.3-15.2-22.1c0-4.8,5.3-12,12-18.7l0.2-0.2
	c4.4-4.7,9.4-9,13.6-12.8c3.1-2.4,6.6-4.4,10.2-5.5c0.5-0.3,0.8-0.3,1.3-0.3c1-0.5,1.9-0.6,2.9-0.8c1.9-0.5,3.9-0.6,5.8-0.6h359
	c1.9,0,3.9,0.2,5.7,0.6c5.3,0.8,10.3,3.2,14.4,6.6c10.3,8.9,25.8,23.4,25.8,31.7C718.3,486.4,702.7,500.8,692.4,509.5z"/>
</svg>
