<?xml version="1.0" encoding="utf-8"?>
<!-- Generator: Adobe Illustrator 26.0.2, SVG Export Plug-In . SVG Version: 6.00 Build 0)  -->
<svg version="1.1" id="Layer_1" xmlns="http://www.w3.org/2000/svg" xmlns:xlink="http://www.w3.org/1999/xlink" x="0px" y="0px"
	 viewBox="0 0 1000 1000" style="enable-background:new 0 0 1000 1000;" xml:space="preserve">
<style type="text/css">
	.st0{fill-rule:evenodd;clip-rule:evenodd;fill:#06113C;}
</style>
<g>
	<path class="st0" d="M880.3,270.3L362.7,940.6c-21.4,27.3-52.7,45.5-88.5,51.1c-65.7,10.6-185,13.1-203.7-4.7
		c-18.5-18-48-130.3-53.8-196.7c-3.1-36,7-70.7,28.4-98.2l341.5-442.3L554.5,381c7,5.4,15.8,8.1,25.2,7.2c16.9-1.4,43.4-5,50.2-13.7
		c6.7-8.6,3.8-35.3,1.1-52c-1.4-9.2-5.9-17.1-13-22.7L449.6,168.3L562.2,22.6c19.6-25.6,56.3-30,81.7-10.3l226.2,176.9
		C895.3,208.8,899.8,245.1,880.3,270.3z"/>
	<path class="st0" d="M985.9,940.1c0,11.7-21.6,32-36.2,44.3c-5.8,5-12.8,8.3-20.1,9.5c-2.5,0.7-5.2,0.9-7.9,0.9H631.4
		c-2.7,0-5.4-0.2-8.1-0.9c-7.4-1.3-14.4-4.5-20.2-9.5c-14.6-12.2-36.2-32.6-36.2-44.3c0-11.7,21.6-32,36.2-44.4
		c5.8-4.9,12.8-8.1,20.2-9.4c2.7-0.7,5.4-0.9,8.1-0.9h290.2c2.7,0,5.4,0.2,7.9,0.9c7.4,1.3,14.4,4.5,20.1,9.4
		C964.3,908.1,985.9,928.4,985.9,940.1z"/>
</g>
</svg>
