<?xml version="1.0" encoding="utf-8"?>
<!-- Generator: Adobe Illustrator 26.0.2, SVG Export Plug-In . SVG Version: 6.00 Build 0)  -->
<svg version="1.1" id="Layer_1" xmlns="http://www.w3.org/2000/svg" xmlns:xlink="http://www.w3.org/1999/xlink" x="0px" y="0px"
	 viewBox="0 0 1000 1000" style="enable-background:new 0 0 1000 1000;" xml:space="preserve">
<style type="text/css">
	.st0{fill-rule:evenodd;clip-rule:evenodd;fill:#06113C;}
</style>
<g>
	<path class="st0" d="M735.2,759.9c0,5.9-0.3,11.6-0.8,17c0.7-4.6,1-9.3,1-14.2C735.4,761.7,735.4,760.9,735.2,759.9z M0,761.5
		c0,6.6,0.5,12.8,1.5,18.7c-0.8-6.8-1.2-13.8-1.3-21.3C0,759.9,0,760.7,0,761.5z"/>
	<path class="st0" d="M1000,661.3c0,0.8,0,1.7-0.2,2.5c-5.9,80.3-51.3,100.1-149.8,132l-4.6,1l-1.5,0.2c-6.9,0.8-12.5-4.9-11.8-11.6
		c11.5-105.5-46.9-173.3-96.7-211.4c-23.6-18.2-45.4-29.5-56.7-35.1c-1.5-0.8-1.9-2-1.7-2.7c0-0.2,0.2-0.5,0.3-0.7
		c0.3-0.3,0.8-0.5,1.5-0.7c11.8-0.2,24-0.2,35.8,0h1c6.6,0.2,13.2,0.5,19.7,0.7c56.5,2.7,108.3,10,130.9,15.2
		c63.8,12.3,105.8,37.1,123.2,73.4C995.3,635.9,998.8,648.5,1000,661.3z"/>
	<path class="st0" d="M890,309c-19.2,74.4-80.5,127.9-154.6,143.1c-15.9,3.4-32.2,4.9-49.1,4.6c-9.5-0.2-18.9-1.2-28-2.7
		c-6.6-1-9.8-8.3-6.1-13.7c36.3-52.3,56.9-115.1,56.9-182.4c0-16-1.2-31.9-3.5-47.4c-7.6-52.3-27.8-100.7-58.2-142.3
		c-1.2-1.7-2.2-4.2-0.8-6.2c1-1.5,2.9-2.4,4.7-2.7C664.3,56.5,678,55,692,55C822.6,55,924.9,175.2,890,309z"/>
	<path class="st0" d="M611,253.4c0,132.3-108.3,238.3-243.3,238.3s-243.3-106-243.3-238.3c0-43.5,11.6-84.2,32.4-119.1
		c41.8-71.4,120.5-119,210.9-119c90.4,0,169.1,47.6,210.9,119C599.4,169.2,611,209.9,611,253.4z"/>
	<path class="st0" d="M182.6,621.3C80.7,638.9,8.8,676.5,0.9,748.9C8.3,676,80.3,638.6,182.6,621.3z"/>
	<path class="st0" d="M734.9,769.8c-0.2,2.4-0.3,4.7-0.5,7.1c-2.5,34.9-11,61.1-25.6,81.8c13.7-20.8,22.1-46.4,25.1-78.5
		C734.2,776.9,734.6,773.5,734.9,769.8z"/>
	<path class="st0" d="M735.2,759v0.8c-0.2,3.4-0.2,6.7-0.3,10c-0.3,3.7-0.7,7.1-1,10.5c-3,32.1-11.5,57.7-25.1,78.5
		c-0.7,0.8-1.4,1.9-2,2.7c-31.1,44.9-87.6,67.5-167.9,87.2l-19.9,4.2l-151.2,31.7l-147.5-30.9c-2-0.5-4-0.8-6.1-1.4l-17.6-3.7
		C116.3,929,59.8,906.4,28.7,861.5c-0.7-0.8-1.4-1.7-2-2.7C13,838,4.6,812.4,1.5,780.3c-0.3-3.4-0.7-6.8-1-10.5
		c-0.2-3.2-0.2-6.6-0.3-10c0-3.7,0.3-7.4,0.7-11c7.9-72.4,79.8-110,181.7-127.6c34.1-5.7,71.5-9.3,111-11.1
		c24-1.2,48.8-1.7,74.1-1.7s50.1,0.5,74.1,1.7c39.5,1.9,76.9,5.4,111,11.1c101.9,17.6,173.8,55.2,181.7,127.6
		C734.9,752.1,735.2,755.5,735.2,759z"/>
	<path class="st0" d="M26.7,858.8C12,838,3.6,811.9,1,776.9c-0.2-2.4-0.3-4.7-0.5-7.1c0.3,3.7,0.7,7.1,1,10.5
		C4.6,812.4,13,838,26.7,858.8z"/>
	<path class="st0" d="M734.6,748.9c-7.9-72.4-79.8-110-181.7-127.6C655.1,638.6,727.1,676,734.6,748.9z"/>
	<path class="st0" d="M999.8,659c0.2,1.6,0.2,3.2,0.1,4.8c-5.9,80.3-51.3,100.1-149.8,132l-4.6,1l-1.5,0.2
		c-6.9,0.8-12.5-4.9-11.8-11.6c11.5-105.5-46.9-173.3-96.7-211.4c-23.6-18.2-45.4-29.5-56.7-35.1c-1.5-0.8-1.9-2-1.7-2.7
		c0-0.2,0.2-0.5,0.3-0.7c12.1-0.5,24.6-0.7,37.3-0.7h1c6.6,0.2,13.2,0.5,19.7,0.7c56.5,2.7,108.3,10,130.9,15.2
		c63.8,12.3,105.8,37.1,123.2,73.4C994.9,635.1,998.4,647,999.8,659z"/>
</g>
</svg>
