<?xml version="1.0" encoding="utf-8"?>
<!-- Generator: Adobe Illustrator 26.0.2, SVG Export Plug-In . SVG Version: 6.00 Build 0)  -->
<svg version="1.1" id="Layer_1" xmlns="http://www.w3.org/2000/svg" xmlns:xlink="http://www.w3.org/1999/xlink" x="0px" y="0px"
	 viewBox="0 0 1000 1000" style="enable-background:new 0 0 1000 1000;" xml:space="preserve">
<style type="text/css">
	.st0{fill:#06113C;}
</style>
<path class="st0" d="M997.8,797.5c-25.9,69.6-97.9,160.1-119.9,175.2c-25.1,18.2-54.3,27.3-87.1,27.3c-33.7,0-70.9-9.6-111.8-28.7
	c-97.4-40.7-329.2-214.5-378.7-252.1c-3.8-2.9-7.2-6-10.3-9.1c-3.3-3.3-6.4-6.7-9.1-10.3C243.2,650.2,69.4,418.3,28.7,321
	C9.6,280.1,0,242.8,0,209.3c0-32.8,9.1-62.2,27.3-87.1c15.1-22.2,105.6-94.1,175.2-120c21.3-8.1,39.5,6.9,57.9,30.2
	c28.3,36.1,123,159.5,123,159.5c25.2,38.1-6.9,62.9-26.1,84.2c-22,24-54.8,60.5-41.6,95.7c23.7,57.7,97.9,156.3,116.6,180.5
	c2.2,3.1,4.6,5.7,7.4,8.1c2.4,2.7,5,5.2,8.1,7.6c24.2,18.5,123,92.7,180.7,116.4c35,13.2,71.4-19.6,95.5-41.4
	c21.3-19.4,46-51.5,84.2-26.1c0,0,123.5,94.5,159.5,122.8C991.1,758,1005.9,776.2,997.8,797.5z"/>
</svg>
