<?xml version="1.0" encoding="utf-8"?>
<!-- Generator: Adobe Illustrator 26.0.2, SVG Export Plug-In . SVG Version: 6.00 Build 0)  -->
<svg version="1.1" id="Layer_1" xmlns="http://www.w3.org/2000/svg" xmlns:xlink="http://www.w3.org/1999/xlink" x="0px" y="0px"
	 viewBox="0 0 1000 1000" style="enable-background:new 0 0 1000 1000;" xml:space="preserve">
<style type="text/css">
	.st0{fill-rule:evenodd;clip-rule:evenodd;fill:#06113C;}
</style>
<g>
	<path class="st0" d="M0,428.4C0,190.8,190.6-1.8,425.7-1.8c112.9,0,221.1,45.3,301,126c79.8,80.7,124.7,190.1,124.7,304.2
		c0,237.6-190.6,430.2-425.6,430.2C190.6,858.7,0,666,0,428.4z"/>
	<path class="st0" d="M909.9,999.2c11.9,11.9,65.2-21.3,65.2-21.3s36-52.2,21.3-65.2C981.8,899.6,830,765,830,765
		c-3.6-3.6-8.7-5.4-14.5-5.2c-10.6,0.5-36.6,11.4-41.8,16.7s-16.2,31.3-16.7,41.8c-0.3,5.7,1.6,10.9,5.2,14.5
		C762.2,832.8,898,987.3,909.9,999.2z"/>
</g>
</svg>
