<?xml version="1.0" encoding="utf-8"?>
<!-- Generator: Adobe Illustrator 26.0.2, SVG Export Plug-In . SVG Version: 6.00 Build 0)  -->
<svg version="1.1" id="Layer_1" xmlns="http://www.w3.org/2000/svg" xmlns:xlink="http://www.w3.org/1999/xlink" x="0px" y="0px"
	 viewBox="0 0 1000 1000" style="enable-background:new 0 0 1000 1000;" xml:space="preserve">
<style type="text/css">
	.st0{fill:#fff;}
</style>
<path class="st0" d="M999.6,33.8c-10.8,35.6-24.8,81.8-30.7,102.2c-0.5,1.4-0.8,2.5-1.2,3.7L861.9,495.9L756.6,851.1
	c-6.1,19.7-24.1,82.2-38,129.7c-6.4,22.3-36.1,26.2-48.1,6.4c-25.8-42.2-59.6-97.5-69.9-115.1c-0.3-0.5-0.5-0.8-0.7-1.2
	c-1.3-1.7-2.5-3.2-3.5-5.1l-135.5-223c-13.8-22.9-10.1-52.3,9.1-71.2l127.4-125.2l53.5-52.6l76.6-75.4c1.7-1.5,3.4-3.4,4.6-5.2
	c0-0.2,0.2-0.2,0.2-0.3l2.2-2.2c0,0,22.6-35.3,10.6-57c-23.6-11.3-57,10.8-57,10.8l-5.7,5.7l-1.4,1.2l-49.4,49.8L568,385.1
	L426.3,527.8c-19.1,18.9-48.4,22.4-71.2,8.4L132.7,399.4c-1.5-1-3.2-2-4.7-3l-0.3-0.3c-0.2,0-0.2-0.2-0.3-0.2
	c-16.2-10-72.9-44.7-115.4-71c-19.7-12.1-15.7-41.8,6.6-48.1c47.6-13.5,110.2-31.2,130.1-37.3l355.6-103.3L860.1,32.8
	c4.6-1.4,11.5-3.5,19.7-5.9c23.5-6.7,58.7-17.2,87.4-25.8c8.1-2.4,16.2-0.7,22.3,3.4c2.7,1.9,5.1,4.2,6.8,6.7c1,1.3,1.9,2.9,2.5,4.4
	c0.7,1.5,1.2,3.4,1.5,5.1C1001.1,24.9,1000.9,29.3,999.6,33.8z"/>
</svg>
