<?xml version="1.0" encoding="utf-8"?>
<!-- Generator: Adobe Illustrator 26.0.2, SVG Export Plug-In . SVG Version: 6.00 Build 0)  -->
<svg version="1.1" id="Layer_1" xmlns="http://www.w3.org/2000/svg" xmlns:xlink="http://www.w3.org/1999/xlink" x="0px" y="0px"
	 viewBox="0 0 1000 1000" style="enable-background:new 0 0 1000 1000;" xml:space="preserve">
<style type="text/css">
	.st0{fill:#06113C;}
</style>
<g>
	<path class="st0" d="M376.5,1000c-22.2-3.3-44.7-5.1-66.5-10C186.7,961.8,90.4,854.7,75,729.5c-20.5-167,92.6-317.7,259.4-345
		c32.3-5.3,64.8-6.1,97.6-0.2c0,54.8,0,109.1,0,164.3c-8.7-1.6-16.8-3.4-25-4.6c-80.4-11.7-156.9,44.5-167.4,122.9
		C228.2,751,284.4,825.1,367,836.3c83.1,11.2,167.8-53.4,167.1-151.4c-0.9-118.6,0-237.3,0.1-355.9c0.1-105.3,0-210.5,0-315.8
		c0-4.2,0-8.4,0-13.2c54.6,0,108.2,0,161.7,0c2.4,16.8,3.8,33.6,7.2,50.1c22.9,111.5,121.8,195.1,235.5,199
		c9.9,0.3,12.4,3,12.3,12.7c-0.5,46.3-0.2,92.6-0.2,138.8c0,3.5,0,7,0,11.2c-46.7,0.5-90.6-7.2-133.5-21.6
		c-42.8-14.4-82.1-35.6-119.8-63.9c0,5.5,0,8.9,0,12.4c0.3,115.4,0.6,230.7,1,346.1c0.2,62.9-15.3,121.4-50.7,173.6
		c-57.8,85-138.4,131.8-241.1,140.1c-3.5,0.3-7,1.1-10.5,1.6C389.5,1000,383,1000,376.5,1000z"/>
</g>
</svg>
