<?xml version="1.0" encoding="utf-8"?>
<!-- Generator: Adobe Illustrator 26.0.2, SVG Export Plug-In . SVG Version: 6.00 Build 0)  -->
<svg version="1.1" id="Layer_1" xmlns="http://www.w3.org/2000/svg" xmlns:xlink="http://www.w3.org/1999/xlink" x="0px" y="0px"
	 viewBox="0 0 1000 1000" style="enable-background:new 0 0 1000 1000;" xml:space="preserve">
<style type="text/css">
	.st0{fill:#06113C;}
</style>
<path class="st0" d="M882,222c42.8-25.6,74.9-66,90.2-113.5c-40.2,23.9-84.3,40.7-130.2,49.8c-63.7-67.3-164.6-83.7-246.3-40
	c-81.7,43.7-124,136.8-103.3,227.1c-164.9-8.3-318.6-86.2-422.7-214.3C15.2,224.9,43,344.7,133.1,404.9
	c-32.5-1.1-64.4-9.8-92.9-25.7c0,0.9,0,1.7,0,2.6c0,97.6,68.8,181.8,164.6,201.1c-30.2,8.2-61.9,9.4-92.6,3.5
	C139,670,216,727.2,303.7,728.9c-72.6,57-162.4,87.9-254.8,87.8c-16.4,0-32.7-0.9-49-2.8c93.8,60.3,202.9,92.3,314.4,92.2
	c155.1,1.1,304.2-60.1,413.9-169.8C838,626.6,899.1,477.5,898,322.4c0-8.9-0.2-17.7-0.6-26.5c40.1-29,74.8-65,102.4-106.2
	C962.4,206.3,922.7,217.2,882,222z"/>
</svg>
