<?xml version="1.0" encoding="utf-8"?>
<!-- Generator: Adobe Illustrator 26.0.2, SVG Export Plug-In . SVG Version: 6.00 Build 0)  -->
<svg version="1.1" id="Layer_1" xmlns="http://www.w3.org/2000/svg" xmlns:xlink="http://www.w3.org/1999/xlink" x="0px" y="0px"
	 viewBox="0 0 1000 1000" style="enable-background:new 0 0 1000 1000;" xml:space="preserve">
<style type="text/css">
	.st0{fill-rule:evenodd;clip-rule:evenodd;fill:#06113C;}
</style>
<g>
	<path class="st0" d="M430.7,962.1c0,20.6,74.7,37.9,74.7,37.9s76.1-13.9,74.7-37.9c-1.4-24-16.2-237.7-16.2-237.7
		c0-6.2-2.8-12.2-8-16.9c-9.5-8.7-41.5-21.7-50.5-21.7c-9,0-41,13-50.5,21.7c-5.2,4.7-8,10.7-8,16.9
		C446.9,724.4,430.7,941.5,430.7,962.1z"/>
	<path class="st0" d="M776.2,570.7c-6.6,2.3-13.5,4.3-20.4,6.5c-14.1,4-28.9,8-44.3,11.8l-197.7,41.6c-9.1,1.9-18.4,1.9-27.5,0
		L288.6,589c-15.4-3.8-30.2-7.8-44.4-11.8c-7-2.2-13.8-4.2-20.4-6.5c-39.9-18.4-59.1-68.9-34.9-111.1L431.4,39.5
		C446.7,13.1,473.3,0,500,0c26.7,0,53.3,13.1,68.6,39.5l242.5,420.1C835.4,501.8,816.1,552.3,776.2,570.7z"/>
</g>
</svg>
