<?xml version="1.0" encoding="utf-8"?>
<!-- Generator: Adobe Illustrator 26.0.2, SVG Export Plug-In . SVG Version: 6.00 Build 0)  -->
<svg version="1.1" id="Layer_1" xmlns="http://www.w3.org/2000/svg" xmlns:xlink="http://www.w3.org/1999/xlink" x="0px" y="0px"
	 viewBox="0 0 1000 1000" style="enable-background:new 0 0 1000 1000;" xml:space="preserve">
<style type="text/css">
	.st0{fill:#06113C;}
</style>
<path class="st0" d="M500.6,871.1h-1c-3.1,0-313-0.6-391.2-21.8c-43-11.6-76.6-45.2-88.1-88.2C6.2,681.8-0.6,601.3,0,520.8
	c-0.4-80.7,6.6-161.2,20.8-240.7c11.8-43,45.3-76.8,88.2-89.1c76-20,377.4-20,390.2-20h1c3.1,0,313.8,0.6,391.2,21.8
	c42.9,11.6,76.4,45.2,88,88.1c14.5,79.6,21.3,160.4,20.3,241.4c0.3,80.6-6.6,161-20.9,240.4c-11.7,43-45.3,76.5-88.3,88.1
	C814.8,870.9,513.4,871.1,500.6,871.1z M400.7,401.9l-0.2,238.2c0,13.7,14.8,22.3,26.7,15.4l206.9-119.1c11.9-6.8,11.9-24,0-30.8
	L427.3,386.5C415.5,379.7,400.7,388.2,400.7,401.9z"/>
</svg>
