<svg width="34" height="34" viewBox="0 0 34 34" fill="none" xmlns="http://www.w3.org/2000/svg">
<path d="M29.5234 6.53098C28.7998 5.80707 27.9407 5.23281 26.9952 4.84101C26.0496 4.44922 25.0361 4.24756 24.0126 4.24756C22.9891 4.24756 21.9756 4.44922 21.03 4.84101C20.0844 5.23281 19.2253 5.80707 18.5018 6.53098L17.0001 8.03264L15.4984 6.53098C14.0369 5.06941 12.0546 4.24832 9.98759 4.24832C7.92062 4.24832 5.93832 5.06941 4.47675 6.53098C3.01519 7.99254 2.19409 9.97485 2.19409 12.0418C2.19409 14.1088 3.01519 16.0911 4.47675 17.5526L5.97842 19.0543L17.0001 30.076L28.0218 19.0543L29.5234 17.5526C30.2473 16.8291 30.8216 15.97 31.2134 15.0244C31.6052 14.0788 31.8068 13.0653 31.8068 12.0418C31.8068 11.0183 31.6052 10.0048 31.2134 9.05922C30.8216 8.11366 30.2473 7.25455 29.5234 6.53098V6.53098Z" stroke="white" stroke-width="2" stroke-linecap="round" stroke-linejoin="round"/>
</svg>
