<svg width="24" height="24" xmlns="http://www.w3.org/2000/svg"><path d="M16.02 21.703A10.471 10.471 0 0112 22.5C6.201 22.5 1.5 17.799 1.5 12S6.201 1.5 12 1.5 22.5 6.201 22.5 12a10.471 10.471 0 01-1.488 5.39l1.423 3.756c.306.806-.483 1.595-1.29 1.29l-3.754-1.424c-.44.263-.898.494-1.372.69zm2.945-4.07a1 1 0 01.104-.911A8.476 8.476 0 0020.5 12a8.5 8.5 0 10-8.5 8.5 8.471 8.471 0 004.722-1.431 1 1 0 01.91-.104l2.146.813-.813-2.145zM14.5 7a1 1 0 010 2h-5a1 1 0 110-2h5zm1.5 4a1 1 0 010 2H8a1 1 0 010-2h8zm-1.5 4a1 1 0 010 2h-5a1 1 0 010-2h5z"/></svg>